<?xml version="1.0" encoding="utf-8"?>
<!-- Generator: Adobe Illustrator 19.2.0, SVG Export Plug-In . SVG Version: 6.00 Build 0)  -->
<svg version="1.1" id="Capa_1" xmlns="http://www.w3.org/2000/svg" xmlns:xlink="http://www.w3.org/1999/xlink" x="0px" y="0px"
	 viewBox="0 0 555.4 68.1" style="enable-background:new 0 0 555.4 68.1;" xml:space="preserve">
<style type="text/css">
	.st0{fill:#FFFFFF;}
</style>
<g>
	<g>
		<path class="st0" d="M155.4,65c-1.6,1-3.6,1.8-5.9,2.3c-2.3,0.5-4.8,0.8-7.5,0.8c-7.2,0-12.7-1.8-16.5-5.3
			c-3.9-3.5-5.8-8.8-5.8-15.7V28.7h-8V14.3h8V0H139v14.3h12.6v14.4H139v18.2c0,2,0.5,3.5,1.6,4.6c1,1.1,2.4,1.7,4.2,1.7
			c2.2,0,4.2-0.6,5.9-1.7L155.4,65z"/>
		<path class="st0" d="M202,17.6c4.8,4.2,7.2,10.5,7.2,19.1v30.5h-17.9v-7.1c-2.8,5.3-8.2,8-16.2,8c-4.3,0-7.9-0.7-11-2.2
			s-5.5-3.5-7-6c-1.6-2.5-2.4-5.4-2.4-8.7c0-5.2,2-9.2,6-12.1s10.1-4.3,18.4-4.3H190c-0.3-5.8-4.2-8.7-11.7-8.7
			c-2.6,0-5.3,0.4-8,1.3c-2.7,0.8-5,2-6.9,3.5l-6.5-13.1c3-2,6.7-3.6,11.1-4.7c4.4-1.1,8.7-1.7,13.1-1.7
			C190.3,11.4,197.2,13.4,202,17.6z M186.3,54.3c1.7-1.1,2.9-2.7,3.6-4.8v-4.7h-8.3c-5.6,0-8.4,1.9-8.4,5.6c0,1.7,0.6,3,1.9,4.1
			c1.3,1,3,1.5,5.3,1.5S184.6,55.4,186.3,54.3z"/>
		<path class="st0" d="M251.2,67.2l-9.9-14.4l-10.5,14.4h-20.9l20.9-27.5l-20.3-27.5h21.7l9.7,13.9L252,12.2h20.4L252.1,39l21,28.2
			H251.2z"/>
		<path class="st0" d="M359.9,19.7c3.8,3.9,5.6,9.4,5.6,16.6v30.9h-5.1V36.7c0-5.9-1.5-10.5-4.4-13.6s-7-4.7-12.2-4.7
			c-5.9,0-10.7,1.9-14.1,5.6c-3.5,3.7-5.2,8.7-5.2,15v28.2h-5.1V36.7c0-5.9-1.5-10.5-4.4-13.6s-7-4.7-12.2-4.7
			c-5.9,0-10.7,1.9-14.1,5.6c-3.5,3.7-5.2,8.7-5.2,15v28.2h-5.1V14.3h4.9v11.4c1.8-3.7,4.4-6.6,7.9-8.7c3.5-2.1,7.6-3.1,12.4-3.1
			s8.9,1.1,12.2,3.2c3.3,2.2,5.7,5.3,7.1,9.5c1.8-3.9,4.5-7,8.3-9.3c3.7-2.3,8.1-3.4,13.1-3.4C351,13.9,356.1,15.8,359.9,19.7z"/>
		<path class="st0" d="M388.6,64.2c-4-2.3-7.2-5.5-9.5-9.6s-3.4-8.7-3.4-13.8c0-5.1,1.1-9.7,3.4-13.8s5.5-7.3,9.5-9.6
			c4-2.3,8.5-3.4,13.5-3.4s9.5,1.2,13.5,3.4c4,2.3,7.2,5.5,9.5,9.6s3.4,8.7,3.4,13.8s-1.1,9.7-3.4,13.8s-5.5,7.3-9.5,9.6
			c-4,2.3-8.5,3.4-13.5,3.4C397.1,67.6,392.6,66.5,388.6,64.2z M413,60.2c3.2-1.9,5.7-4.5,7.6-7.9s2.8-7.2,2.8-11.6
			c0-4.3-0.9-8.2-2.8-11.6c-1.9-3.4-4.4-6-7.6-7.9s-6.8-2.8-10.9-2.8s-7.7,0.9-10.9,2.8c-3.2,1.9-5.7,4.5-7.6,7.9s-2.8,7.2-2.8,11.6
			c0,4.3,0.9,8.2,2.8,11.6s4.4,6,7.6,7.9S398,63,402.1,63S409.8,62.1,413,60.2z"/>
		<path class="st0" d="M465.4,63.9c-1.3,1.2-2.9,2.1-4.8,2.8c-1.9,0.6-3.9,1-6,1c-4.6,0-8.1-1.3-10.6-3.8c-2.5-2.5-3.7-6.1-3.7-10.6
			V18.7h-9.7v-4.4h9.7V2.7h5.1v11.6h16.8v4.4h-16.8v34.1c0,3.4,0.8,6.1,2.5,7.9s4.1,2.7,7.3,2.7c3.3,0,6-1,8.2-2.9L465.4,63.9z"/>
		<path class="st0" d="M479.7,64.2c-4-2.3-7.2-5.5-9.5-9.6s-3.4-8.7-3.4-13.8c0-5.1,1.1-9.7,3.4-13.8s5.5-7.3,9.5-9.6
			c4-2.3,8.5-3.4,13.5-3.4s9.5,1.2,13.5,3.4c4,2.3,7.2,5.5,9.5,9.6s3.4,8.7,3.4,13.8s-1.1,9.7-3.4,13.8c-2.3,4.1-5.5,7.3-9.5,9.6
			c-4,2.3-8.5,3.4-13.5,3.4C488.2,67.6,483.7,66.5,479.7,64.2z M504.1,60.2c3.2-1.9,5.7-4.5,7.6-7.9c1.9-3.4,2.8-7.2,2.8-11.6
			c0-4.3-0.9-8.2-2.8-11.6c-1.9-3.4-4.4-6-7.6-7.9c-3.2-1.9-6.8-2.8-10.9-2.8s-7.7,0.9-10.9,2.8c-3.2,1.9-5.7,4.5-7.6,7.9
			s-2.8,7.2-2.8,11.6c0,4.3,0.9,8.2,2.8,11.6s4.4,6,7.6,7.9s6.8,2.8,10.9,2.8C497.3,63,500.9,62.1,504.1,60.2z"/>
		<path class="st0" d="M542.8,17c3.4-2.1,7.6-3.1,12.6-3.1v5l-1.2-0.1c-5.9,0-10.5,1.8-13.8,5.5s-5,8.8-5,15.4v27.6h-5.1v-53h4.9
			v11.6C536.8,22,539.3,19,542.8,17z"/>
	</g>
	<g>
		<path class="st0" d="M33.3,54.9L13.4,38c-1.1-1-1.7-2.4-1.7-3.8c0-4.1,4.9-6.4,8.1-3.8l15.1,12.4l33.2-32.3V3.1
			c0-1.4-1.2-2.6-2.6-2.6H2.6C1.2,0.5,0,1.7,0,3.1V66c0,1.4,1.2,2.6,2.6,2.6h62.9c1.4,0,2.6-1.2,2.6-2.6V23.5L36.5,55
			C35.6,55.7,34.2,55.7,33.3,54.9z"/>
		<path class="st0" d="M77,1.3l-8.5,8.8V23l9.1-9.4c0.6-0.4,0.9-1,0.9-1.7V2.1C78.5,1.3,77.7,0.9,77,1.3z"/>
	</g>
</g>
</svg>
