<svg xmlns="http://www.w3.org/2000/svg" width="67" height="80.834" viewBox="0 0 67 80.834">
  <g id="Imagen-2" transform="translate(-45.176 -284.198)">
    <g id="Grupo_403" data-name="Grupo 403" transform="translate(45.176 284.198)">
      <path id="Trazado_1462" data-name="Trazado 1462" d="M82.552,284.422a26.106,26.106,0,0,0-22.7,25.943,51.178,51.178,0,0,0,3.721,19.025,12.612,12.612,0,0,0-7.837,11.846,12.949,12.949,0,0,0,3.353,8.753L45.41,363.668a.8.8,0,0,0,0,1.13h0a.8.8,0,0,0,1.13,0l13.7-13.7a11.459,11.459,0,0,0,7.414,2.747,11.7,11.7,0,0,0,9.486-4.984,47.994,47.994,0,0,0,8.485,6.447l.406.225.4-.241A59.081,59.081,0,0,0,99.3,343.813c5.872-6.906,12.872-18.316,12.872-33.452A26.194,26.194,0,0,0,82.552,284.422Zm-14.9,67.823c-5.691,0-10.321-4.939-10.321-11.009a11.007,11.007,0,0,1,6.86-10.371,53.823,53.823,0,0,0,8.6,13.5c1.073,1.234,2.141,2.357,3.179,3.377A10.124,10.124,0,0,1,67.655,352.245Zm9.152-5.929c-.934-.929-1.89-1.942-2.845-3.043a52.212,52.212,0,0,1-8.215-12.855,9.736,9.736,0,0,1,1.908-.192c5.691,0,10.321,4.939,10.321,11.01A11.522,11.522,0,0,1,76.807,346.316Zm21.314-3.58A60.281,60.281,0,0,1,86,353.669a50.836,50.836,0,0,1-7.989-6.195,13.087,13.087,0,0,0,1.568-6.238c0-6.952-5.347-12.608-11.919-12.608a11.3,11.3,0,0,0-2.547.293,49.583,49.583,0,0,1-3.658-18.565A24.192,24.192,0,0,1,69.2,292.428a24.585,24.585,0,0,1,41.381,17.933C110.578,324.989,103.8,336.041,98.121,342.736Z" transform="translate(-45.176 -284.198)" fill="#272635"/>
      <path id="Trazado_1463" data-name="Trazado 1463" d="M103.29,306.033c-6.952,0-12.607,5.984-12.607,13.338s5.656,13.338,12.607,13.338,12.608-5.983,12.608-13.338S110.243,306.033,103.29,306.033Zm0,25.078c-6.07,0-11.009-5.267-11.009-11.74s4.939-11.74,11.009-11.74S114.3,312.9,114.3,319.371,109.361,331.111,103.29,331.111Z" transform="translate(-62.453 -292.488)" fill="#272635"/>
    </g>
    <ellipse id="Elipse_147" data-name="Elipse 147" cx="10.321" cy="11.009" rx="10.321" ry="11.009" transform="translate(57.334 330.226)" fill="#f4a264" opacity="0.5"/>
  </g>
</svg>
