<svg xmlns="http://www.w3.org/2000/svg" width="67" height="67.691" viewBox="0 0 67 67.691">
  <g id="Imagen-6" transform="translate(-844.975 -287.06)">
    <path id="Trazado_1482" data-name="Trazado 1482" d="M922.151,305.027l19.323-.06-.027,10.885-2.647-.007v-7.817l-16.653-.006Z" transform="translate(-31.204 -7.24)" fill="#66bb6a"/>
    <g id="Grupo_412" data-name="Grupo 412" transform="translate(844.975 287.06)">
      <path id="Trazado_1483" data-name="Trazado 1483" d="M908.672,349.676a3.29,3.29,0,0,0-3.171,2.435H860.948a11.846,11.846,0,0,1-11.833-11.833V297.227a3.287,3.287,0,1,0-1.7,0v43.051a13.553,13.553,0,0,0,13.538,13.537H905.5a3.286,3.286,0,1,0,3.171-4.139Zm-61.993-55.62a1.583,1.583,0,1,1,1.583,1.583A1.585,1.585,0,0,1,846.679,294.055Zm61.993,60.491a1.583,1.583,0,1,1,1.583-1.583A1.585,1.585,0,0,1,908.672,354.546Z" transform="translate(-844.975 -288.559)" fill="#272635"/>
      <path id="Trazado_1484" data-name="Trazado 1484" d="M943.325,300.924a2.979,2.979,0,1,0,2.979-2.979A2.983,2.983,0,0,0,943.325,300.924Zm4.255,0a1.275,1.275,0,1,1-1.275-1.275A1.276,1.276,0,0,1,947.58,300.924Z" transform="translate(-884.742 -291.461)" fill="#272635"/>
      <path id="Trazado_1485" data-name="Trazado 1485" d="M935.368,293.019a2.979,2.979,0,1,0-2.979-2.979A2.983,2.983,0,0,0,935.368,293.019Zm0-4.255a1.275,1.275,0,1,1-1.275,1.275A1.277,1.277,0,0,1,935.368,288.764Z" transform="translate(-880.32 -287.06)" fill="#272635"/>
      <path id="Trazado_1486" data-name="Trazado 1486" d="M929.427,313.473a4.193,4.193,0,1,0,4.193,4.193A4.2,4.2,0,0,0,929.427,313.473Zm0,6.683a2.489,2.489,0,1,1,2.489-2.489A2.492,2.492,0,0,1,929.427,320.156Z" transform="translate(-877.427 -297.74)" fill="#272635"/>
      <path id="Trazado_1487" data-name="Trazado 1487" d="M938.018,315.237l-2.648-.007v-7.817H918.709l.006-2.258,3.914.01,0-1.7-5.618-.014-.01,3.966h-3.339v12.4h21.7v-2.876l4.347.011.031-12.589-1.7,0Zm-22.648-5.948H917.9a2.5,2.5,0,0,1-2.533,2.459Zm2.459,8.818H915.37v-2.533a2.492,2.492,0,0,1,2.459,2.487C917.83,318.077,917.83,318.092,917.829,318.107Zm15.837,0h-2.533a2.5,2.5,0,0,1,2.533-2.46Zm0-4.161c-.015,0-.03,0-.045,0a4.2,4.2,0,0,0-4.19,4.164h-9.9c0-.016,0-.03,0-.046a4.2,4.2,0,0,0-4.164-4.19v-.422c.016,0,.03,0,.045,0a4.2,4.2,0,0,0,4.192-4.2c0-.047-.007-.092-.008-.139h9.918c0,.072-.015.144-.015.216a4.2,4.2,0,0,0,4.164,4.19Zm0-2.124a2.492,2.492,0,0,1-2.459-2.488v-.045h2.459Z" transform="translate(-872.75 -293.686)" fill="#272635"/>
      <path id="Trazado_1488" data-name="Trazado 1488" d="M872.89,347.6l8.427,7.683,11.554-11.764,1.586,1.586,1.62-6.044-6.045,1.619,1.634,1.634-10.414,10.6-8.372-7.633L860.2,357.044l1.159,1.25Z" transform="translate(-851.131 -308.087)" fill="#272635"/>
      <rect id="Rectángulo_765" data-name="Rectángulo 765" width="13.351" height="1.704" transform="translate(52.589 10.758) rotate(-45)" fill="#272635"/>
    </g>
    <circle id="Elipse_154" data-name="Elipse 154" cx="1.583" cy="1.583" r="1.583" transform="translate(846.679 290.973)" fill="#f4a264"/>
    <circle id="Elipse_155" data-name="Elipse 155" cx="1.583" cy="1.583" r="1.583" transform="translate(907.089 349.88)" fill="#f4a264"/>
  </g>
</svg>
