<svg xmlns="http://www.w3.org/2000/svg" width="73" height="70.045" viewBox="0 0 73 70.045">
  <g id="Imagen-4" transform="translate(-501.118 -283.151)">
    <path id="Trazado_1473" data-name="Trazado 1473" d="M530.882,339.266c-.883,0-1.21-13.839-.208-13.839,1.631,0,4.683-1.18,4.683-2.663a2.829,2.829,0,0,0-2.953-2.685,2.862,2.862,0,0,0-2.915,2.338c-.326-.363-3.082,3.5-3.082,4.554v12.92a1.848,1.848,0,0,0,1.79,1.9,1.17,1.17,0,0,1,.933.458c0,1.483,1.523,1.9,3.006,1.9a2.685,2.685,0,0,0,2.685-2.685C534.821,339.983,532.365,339.266,530.882,339.266Z" transform="translate(-10.024 -14.638)" fill="#f4a264"/>
    <path id="Trazado_1474" data-name="Trazado 1474" d="M538.99,288.915v-4.762a1,1,0,0,0-1-1H527.4l-.576.321L517,288.933l-14.691.014a1.194,1.194,0,0,0-1.193,1.195v55.869a1.322,1.322,0,0,0,1.322,1.322h1.072v5.034h11.942v-5.034h.831l10.537,5.554.585.308h10.7a.88.88,0,0,0,.88-.879v-4.983h21.319v5.034h11.942v-5.034h.273a1.594,1.594,0,0,0,1.594-1.594V290.321a1.374,1.374,0,0,0-1.373-1.374Zm-25.091,61.9h-8.832v-3.479H513.9Zm-11.226-5.034V290.5H514.18l1.379-.767L507,294.5v5.789h-1.287a.777.777,0,0,0-.777.777h0a.777.777,0,0,0,.777.777H507v.926h-1.287a.777.777,0,0,0-.777.777h0a.777.777,0,0,0,.777.777H507v28.018h-1.287a.777.777,0,0,0-.777.777h0a.777.777,0,0,0,.777.777H507v.925h-1.287a.777.777,0,0,0-.777.777h0a.777.777,0,0,0,.777.777H507v6.06l6.338,3.342Zm24.149,5.352L508.553,341.5v-5.122h.541a.778.778,0,0,0,.777-.777h0a.778.778,0,0,0-.777-.777h-.541V333.9h.541a.778.778,0,0,0,.777-.777h0a.777.777,0,0,0-.777-.777h-.541V304.323h.541a.778.778,0,0,0,.777-.777h0a.777.777,0,0,0-.777-.777h-.541v-.926h.541a.777.777,0,0,0,.777-.777h0a.778.778,0,0,0-.777-.777h-.541v-4.874l18.269-10.163Zm10.613.511h-9.058V284.706h9.058v66.935Zm7.537-33.63H538.99v-9.652h7.545l4.213,9.652Zm8.152,1.555h2.323l4.213,9.652H541.94L546,319.565Zm-8.807,0-4.064,9.652H538.99v-9.652ZM539.6,330.773h3.6l4.213,9.653H538.99v-9.653Zm5.3,0h7.252l-3.561,8.457Zm8.939,0h9.443l4.213,9.653h-17.72Zm10.461-1.555h-2.942l-4.892-11.207h-4.02L547.553,306.8H538.99V295.162H567.9v42.316Zm6.4,21.594h-8.832v-3.479H570.7Zm1.867-5.034H538.99v-3.8h29.663a.806.806,0,0,0,.805-.806V294.861a1.254,1.254,0,0,0-1.254-1.254H538.99v-3.1h33.573Z" fill="#272635"/>
    <path id="Trazado_1475" data-name="Trazado 1475" d="M572.811,343.478h9.443l4.213,9.652h-17.72Z" transform="translate(-26.807 -23.913)" fill="#f4a264"/>
    <path id="Trazado_1476" data-name="Trazado 1476" d="M585.79,362.045h9.443l4.213,9.653h-17.72Z" transform="translate(-31.952 -31.272)" fill="#f4a264"/>
    <path id="Trazado_1477" data-name="Trazado 1477" d="M563.86,362.045h4.213l4.213,9.653H563.86Z" transform="translate(-24.87 -31.272)" fill="#f4a264"/>
    <path id="Trazado_1478" data-name="Trazado 1478" d="M563.86,324.911H571.4l4.213,9.652H563.86Z" transform="translate(-24.87 -16.553)" fill="#f4a264"/>
    <circle id="Elipse_148" data-name="Elipse 148" cx="1.17" cy="1.17" r="1.17" transform="translate(532.047 346.157)"/>
    <circle id="Elipse_149" data-name="Elipse 149" cx="1.17" cy="1.17" r="1.17" transform="translate(532.047 339.249)"/>
    <circle id="Elipse_150" data-name="Elipse 150" cx="1.17" cy="1.17" r="1.17" transform="translate(532.047 332.34)"/>
    <circle id="Elipse_151" data-name="Elipse 151" cx="1.17" cy="1.17" r="1.17" transform="translate(532.047 303.373)"/>
    <circle id="Elipse_152" data-name="Elipse 152" cx="1.17" cy="1.17" r="1.17" transform="translate(532.047 296.464)"/>
    <circle id="Elipse_153" data-name="Elipse 153" cx="1.17" cy="1.17" r="1.17" transform="translate(532.047 289.555)"/>
    <g id="Grupo_407" data-name="Grupo 407" transform="translate(514.767 304.688)">
      <path id="Trazado_1479" data-name="Trazado 1479" d="M534.7,343.833a.917.917,0,0,1-.917.917h-1.862c-4.517,0-8.191-4.3-8.191-9.581v-6.756c0-5.283,3.674-9.581,8.191-9.581h1.862a.917.917,0,0,1,.917.917h0a.917.917,0,0,1-.917.916h-1.862c-3.506,0-6.358,3.476-6.358,7.748v6.756c0,4.272,2.852,7.748,6.358,7.748h1.862a.917.917,0,0,1,.917.916Z" transform="translate(-523.73 -318.831)" fill="#272635"/>
      <path id="Trazado_1480" data-name="Trazado 1480" d="M537.143,342.248a.917.917,0,0,1-.917.917h-1.089c-2.892,0-5.245-2.675-5.245-5.964V332.44c0-3.288,2.353-5.963,5.245-5.963h1.089a.917.917,0,0,1,.917.916h0a.917.917,0,0,1-.917.917h-1.089c-1.881,0-3.412,1.852-3.412,4.13V337.2c0,2.277,1.53,4.131,3.412,4.131h1.089a.917.917,0,0,1,.917.916Z" transform="translate(-526.173 -321.862)" fill="#272635"/>
    </g>
  </g>
</svg>
