<svg xmlns="http://www.w3.org/2000/svg" xmlns:xlink="http://www.w3.org/1999/xlink" width="87" height="87" viewBox="0 0 87 87">
  <defs>
    <clipPath id="clip-path">
      <rect id="Rectángulo_728" data-name="Rectángulo 728" width="87" height="87" transform="translate(-0.001)" fill="none"/>
    </clipPath>
  </defs>
  <g id="Imagen-5" transform="translate(0.001)">
    <g id="Grupo_411" data-name="Grupo 411" transform="translate(-183.184 -273.583)">
      <g id="Grupo_409" data-name="Grupo 409" transform="translate(213.112 293.941)">
        <g id="Grupo_353" data-name="Grupo 353" transform="translate(6.189 36.928)">
          <path id="Trazado_1313" data-name="Trazado 1313" d="M243.666,363.913q-4.5,0-4.5,4.62A4.874,4.874,0,0,0,240.327,372a5.072,5.072,0,0,0,6.687-.026,4.864,4.864,0,0,0,1.18-3.442,4.731,4.731,0,0,0-1.163-3.414A4.453,4.453,0,0,0,243.666,363.913Z" transform="translate(-239.155 -363.903)" fill="#f4a264"/>
        </g>
        <g id="Grupo_355" data-name="Grupo 355" transform="translate(0 0)">
          <path id="Trazado_1314" data-name="Trazado 1314" d="M251.086,306.079q-3.52-2.938-9.516-2.938a26.853,26.853,0,0,0-11.291,2.448,2.2,2.2,0,0,0-1.119,2.9l.022.049.8,1.669a2.34,2.34,0,0,0,2.969.811A.32.32,0,0,0,233,311c.877-.368,1.765-.709,2.667-1.009a16.952,16.952,0,0,1,5.386-.827,7.711,7.711,0,0,1,4.927,1.377,4.766,4.766,0,0,1,1.713,3.949,6.715,6.715,0,0,1-1.054,3.794,23.617,23.617,0,0,1-4.693,4.467,15.985,15.985,0,0,0-4.284,4.62,11.55,11.55,0,0,0-1.225,5.6c-.078,1.628,2,1.959,2,1.959h1.257s2.395.015,2.757-2.047c.006-.028.015-.036.019-.064a6.579,6.579,0,0,1,.924-3.214,18.071,18.071,0,0,1,3.811-3.7,32.787,32.787,0,0,0,4.694-4.224,11.737,11.737,0,0,0,2.037-3.411,11.552,11.552,0,0,0,.67-4.086A10,10,0,0,0,251.086,306.079Z" transform="translate(-228.971 -303.141)" fill="#f4a264"/>
        </g>
      </g>
      <g id="Grupo_410" data-name="Grupo 410" transform="translate(188.54 279.688)">
        <path id="Trazado_1481" data-name="Trazado 1481" d="M225.935,354.478a37.4,37.4,0,1,1,37.395-37.395A37.438,37.438,0,0,1,225.935,354.478Zm0-73.225a35.829,35.829,0,1,0,35.829,35.83A35.87,35.87,0,0,0,225.935,281.254Z" transform="translate(-188.54 -279.688)" fill="#272635"/>
      </g>
    </g>
  </g>
</svg>
