<svg xmlns="http://www.w3.org/2000/svg" width="129.059" height="96.042" viewBox="0 0 129.059 96.042">
  <g id="Imagen-1" transform="translate(-774.732 -421.898)">
    <rect id="Rect치ngulo_764" data-name="Rect치ngulo 764" width="12.528" height="33.898" transform="translate(786.013 448.836) rotate(1)" fill="#f8a463"/>
    <g id="Grupo_402" data-name="Grupo 402" transform="translate(794.794 418.698) rotate(17)">
      <path id="Trazado_1454" data-name="Trazado 1454" d="M777.655,371.824a2.834,2.834,0,0,1-1.017-1.43,4.85,4.85,0,0,0,3.316-.958v3.25A4.48,4.48,0,0,1,777.655,371.824Zm6.927-1.879A2.4,2.4,0,0,0,783.72,368a5.9,5.9,0,0,0-1.96-.987,6.663,6.663,0,0,1-.73,1.312v4.4a4.413,4.413,0,0,0,2.505-.759A2.39,2.39,0,0,0,784.582,369.945Zm8.172-8.128c-.118-.3-.236-.6-.368-.892s-.28-.582-.427-.862v-.007a12.472,12.472,0,0,0-1.43-2.108,12.963,12.963,0,0,0-1.8-1.8,12.835,12.835,0,0,0-2.115-1.43c-.28-.147-.567-.295-.862-.427s-.59-.251-.9-.368a13.156,13.156,0,0,0-4.554-.8c-.228,0-.457.007-.685.015a13.2,13.2,0,0,0-7.5,2.815l5.365,1.474a6.3,6.3,0,0,1,2.343,1.216,1.039,1.039,0,0,1,.133-.015v-2.218a.313.313,0,0,1,.317-.31h.457a.311.311,0,0,1,.31.31c0,.678-.007,2.2-.007,2.2a5.85,5.85,0,0,1,2.277.553,4.335,4.335,0,0,1,1.8,1.584,4.037,4.037,0,0,1,.612,1.746.469.469,0,0,1-.464.523h-.324a.476.476,0,0,1-.464-.427,3.021,3.021,0,0,0-1.01-2.019,3.9,3.9,0,0,0-2.424-.906v.287a6.984,6.984,0,0,1,1.113,2.623,7.766,7.766,0,0,1-.03,3.323,8.706,8.706,0,0,1,1.665.715,4.269,4.269,0,0,1,1.54,1.4,3.359,3.359,0,0,1,.516,1.754,3.5,3.5,0,0,1-1.275,2.874,5.728,5.728,0,0,1-3.53,1.142v2.041a.4.4,0,0,1-.405.405h-.258a.406.406,0,0,1-.413-.405v-2.071a6.851,6.851,0,0,1-2.063-.523,4.356,4.356,0,0,1-1.982-1.562,3.921,3.921,0,0,1-.59-1.452c-.973-.147-2.292-.354-3.832-.59q-2.189-.332-4.178-.619.066.343.155.685c.052.214.111.42.177.626s.133.42.206.619.147.383.221.567a.31.31,0,0,1,.029.074c.081.184.162.368.251.545.118.243.243.486.368.722a13.7,13.7,0,0,0,3.021,3.67c.2.162.413.332.626.494a14.263,14.263,0,0,0,1.614,1.032c.192.1.383.2.575.295s.391.177.59.265c.147.059.3.125.457.184q.376.144.774.265c.2.059.405.118.612.169s.427.111.641.147a5.477,5.477,0,0,0,.59.1c.162.029.324.052.494.074.118.015.243.029.361.037a1.2,1.2,0,0,0,.162.015c.155.015.317.022.472.029.2.007.4.015.6.015a13.156,13.156,0,0,0,4.554-.8c.309-.118.6-.236.9-.368s.582-.28.862-.427a12.833,12.833,0,0,0,2.115-1.43c.332-.273.641-.553.943-.855a11.485,11.485,0,0,0,.855-.943,12.837,12.837,0,0,0,1.43-2.115c.147-.28.295-.567.427-.862s.251-.59.368-.9a13.155,13.155,0,0,0,.8-4.554A13.373,13.373,0,0,0,792.755,361.817Z" transform="translate(-680.455 -312.916)" fill="#66bb6a"/>
      <path id="Trazado_1455" data-name="Trazado 1455" d="M753.021,338.527a30.582,30.582,0,0,0-.03-4.6l-.009,0c-.054-.322-.214-.951-.584-2.408-.326-1.282-.835-3.232-1.4-5.24-.706-2.493-1.273-4.264-1.731-5.532l.15.1a4.027,4.027,0,0,1-.147-.693,4.265,4.265,0,0,1-.075-1.764l-1.172-.808-30.274-11.674c.861.044,1.759.092,2.668.141-.849-.294-1.7-.584-2.574-.848-2.052-.621-4.252-1.566-6.464-2.1-.534.2-1.067.412-1.563.62-.912.257-4.425,2.016-24.079,13.739-9.327,5.563-18.62,11.186-21.684,13.042l-1.291-4.41-13.312,3.9.534,1.822,11.491-3.363,9.219,31.5L659.2,363.309l.534,1.822,13.313-3.9-1.687-5.765c3.025.033,7.937.583,12.336,1.077,3.818.429,7.116.8,8.81.8h.018c4.777,0,12-1.189,17.8-2.144,3.69-.608,6.878-1.133,8.69-1.243,1.836-.113,7.185.45,15.3,1.6a15.158,15.158,0,1,0,18.707-17.032ZM718.9,352.064c-1.91.116-5.141.648-8.884,1.265-5.735.944-12.869,2.119-17.49,2.119h-.018c-1.59,0-4.994-.383-8.6-.789-4.716-.528-10-1.123-13.1-1.088l-6.2-21.182c17.349-10.527,43.189-25.979,45.591-26.808.457.013.977.031,1.551.054L746.4,319c1.184,1.364,4.144,12.668,4.728,15.281a28.963,28.963,0,0,1,.01,3.9,15.25,15.25,0,0,0-1.845-.116,16.591,16.591,0,0,0-4.393.556c-.337-6.533-5.191-12.914-11.349-14.622-3.926-1.089-9.861-1.951-14.74-1.106a8.131,8.131,0,0,0-5.1,3,7.622,7.622,0,0,0-1.4,6.13,6.9,6.9,0,0,0,3.612,5.063,38.642,38.642,0,0,0,4.333,1.716c1.548.539,3.125,1.053,4.709,1.534l21,5.76a4.654,4.654,0,0,1,3.317,3.7,5.093,5.093,0,0,1-1.417,4.929,3.031,3.031,0,0,1-2.4.589c-.967-.153-2.643-.416-4.707-.728C732.482,353.333,721.966,351.873,718.9,352.064Zm24.12-12.783a13.191,13.191,0,0,0-4.142,2.9l-13.382-3.671c-1.536-.466-3.088-.971-4.611-1.5a37.362,37.362,0,0,1-4.121-1.628,5.073,5.073,0,0,1-2.579-3.688,5.7,5.7,0,0,1,1.032-4.643,6.236,6.236,0,0,1,3.919-2.288c4.572-.791,10.182.031,13.909,1.064C738.535,327.348,742.982,333.417,743.018,339.281Zm5.933,17v3.246a4.5,4.5,0,0,1-2.306-.858,2.873,2.873,0,0,1-1.013-1.427A4.885,4.885,0,0,0,748.951,356.278Zm.34,10.2a13.22,13.22,0,0,1-13-10.635q2,.291,4.184.621c1.541.234,2.865.439,3.839.592a3.867,3.867,0,0,0,.587,1.449,4.379,4.379,0,0,0,1.981,1.564,6.94,6.94,0,0,0,2.067.519v2.074a.406.406,0,0,0,.407.406h.26a.4.4,0,0,0,.406-.4v-2.043a5.7,5.7,0,0,0,3.53-1.14,3.51,3.51,0,0,0,1.276-2.879,3.428,3.428,0,0,0-.515-1.752,4.3,4.3,0,0,0-1.544-1.4,8.435,8.435,0,0,0-1.663-.716,7.779,7.779,0,0,0,.031-3.326,7.121,7.121,0,0,0-1.115-2.62v-.29a3.868,3.868,0,0,1,2.422.911,3.02,3.02,0,0,1,1.015,2.019.468.468,0,0,0,.465.42h.318a.47.47,0,0,0,.469-.517,4.1,4.1,0,0,0-.611-1.748A4.317,4.317,0,0,0,752.3,346a5.787,5.787,0,0,0-2.275-.551s.005-1.52.009-2.2a.312.312,0,0,0-.312-.314h-.457a.313.313,0,0,0-.312.312v2.213l-.136.015a6.412,6.412,0,0,0-2.345-1.214l-5.447-1.494a12.2,12.2,0,0,1,8.268-2.81,13.258,13.258,0,1,1,0,26.516Zm.733-6.914v-4.394a6.378,6.378,0,0,0,.727-1.318,5.862,5.862,0,0,1,1.959.991,2.544,2.544,0,0,1-.183,3.967A4.436,4.436,0,0,1,750.024,359.562Z" transform="translate(-649.448 -299.757)" fill="#272635"/>
      <path id="Trazado_1456" data-name="Trazado 1456" d="M727.6,302.609a4.348,4.348,0,0,1-.588.61,5.161,5.161,0,0,0,1.691.291h5.007A14.284,14.284,0,0,0,727.6,302.609Z" transform="translate(-669.854 -299.609)" fill="#fff"/>
      <path id="Trazado_1457" data-name="Trazado 1457" d="M727.781,302.609c-.026.032-.054.061-.08.093a.985.985,0,0,0,.828.513l4.926.158A13.588,13.588,0,0,0,727.781,302.609Z" transform="translate(-670.035 -299.609)" fill="#fff"/>
      <path id="Trazado_1458" data-name="Trazado 1458" d="M775.215,318.651c-1.547-.623-3.132-1.116-4.717-1.606l6.577,2.382C776.458,319.164,775.84,318.9,775.215,318.651Z" transform="translate(-681.294 -303.425)" fill="#fff"/>
      <path id="Trazado_1459" data-name="Trazado 1459" d="M752.931,309.442a3.39,3.39,0,0,1-1.869-.189c-4.074-1.514-7.917-3.172-12.1-4.438a69.585,69.585,0,0,0-7.409-2.307,5.089,5.089,0,0,0,1.508.864l21.219,7.686A2.871,2.871,0,0,1,752.931,309.442Z" transform="translate(-671.049 -299.6)" fill="#fff"/>
      <rect id="Rect치ngulo_763" data-name="Rect치ngulo 763" width="10.536" height="3.286" rx="1.643" transform="translate(62.631 0) rotate(22.383)" fill="#fff"/>
      <path id="Trazado_1460" data-name="Trazado 1460" d="M784.871,322.586c-.245-.1-.488-.2-.732-.3a5.2,5.2,0,0,0,.545,2.885h0A4.192,4.192,0,0,1,784.871,322.586Z" transform="translate(-684.876 -304.804)" fill="#fff"/>
      <path id="Trazado_1461" data-name="Trazado 1461" d="M784.618,322.608l-.788.234a.131.131,0,0,0-.088.162l.881,2.962a.131.131,0,0,0,.162.088l1.554-.463a.13.13,0,0,0,.088-.161l-.711-2.39C785.349,322.9,784.982,322.756,784.618,322.608Z" transform="translate(-684.777 -304.888)" fill="#fff"/>
    </g>
  </g>
</svg>
