<svg xmlns="http://www.w3.org/2000/svg" width="61" height="60.054" viewBox="0 0 61 60.054">
  <g id="Imagen-3" transform="translate(-809 -460.473)">
    <rect id="Rect치ngulo_650" data-name="Rect치ngulo 650" width="13" height="12" rx="1" transform="translate(857 494)" fill="#f8a463"/>
    <rect id="Rect치ngulo_651" data-name="Rect치ngulo 651" width="14" height="12" rx="6" transform="translate(852 494)" fill="#f8a463"/>
    <path id="Trazado_1285" data-name="Trazado 1285" d="M8.1.1,24,0V16l-3.715-3.715Z" transform="translate(830.857 486.828) rotate(-45)" fill="#f8a463"/>
    <g id="Grupo_406" data-name="Grupo 406" transform="translate(464.629 171.275)">
      <path id="Trazado_1464" data-name="Trazado 1464" d="M434.687,350.361v10.523H421.773c-.1,0-.207-.006-.311-.011a2.628,2.628,0,0,1-.3-.029,4.8,4.8,0,0,1-.587-.109,4.084,4.084,0,0,1-.454-.145,3.909,3.909,0,0,1-.426-.179c-.069-.035-.138-.069-.207-.109a2.294,2.294,0,0,1-.2-.115,2.269,2.269,0,0,1-.2-.127c-.063-.04-.127-.086-.19-.132s-.121-.092-.178-.138a4.34,4.34,0,0,1-.34-.311,5.177,5.177,0,0,1-.587-.714,4.574,4.574,0,0,1-.242-.4,2.493,2.493,0,0,1-.173-.351l-.035-.069c-.058-.144-.109-.288-.161-.438a4.135,4.135,0,0,1-.115-.461,4.349,4.349,0,0,1-.075-.478,4.561,4.561,0,0,1-.023-.489v-.915a4.561,4.561,0,0,1,.023-.489,4.328,4.328,0,0,1,.075-.478,5.3,5.3,0,0,1,.276-.9,4.63,4.63,0,0,1,.207-.415,4.387,4.387,0,0,1,.242-.392v-.006c.086-.127.178-.248.276-.368s.2-.23.311-.34c.069-.069.144-.138.219-.207l.121-.1c.069-.058.138-.115.213-.167.052-.04.1-.075.155-.109a4.216,4.216,0,0,1,.4-.242c.069-.04.138-.075.207-.109s.138-.063.207-.1c.144-.058.294-.115.443-.161a4.075,4.075,0,0,1,.478-.115,3.066,3.066,0,0,1,.4-.063,4.29,4.29,0,0,1,.547-.035Z" transform="translate(-30.799 -25.947)" fill="#f4a264"/>
      <path id="Trazado_1465" data-name="Trazado 1465" d="M404.738,307.9,395.4,317.24h18.526Z" transform="translate(-21.649 -7.935)" fill="#f4a264"/>
      <path id="Trazado_1466" data-name="Trazado 1466" d="M354.421,361.245h50.6V349.9H392.109a6.293,6.293,0,0,1-6.286-6.286v-.917a6.293,6.293,0,0,1,6.286-6.286h12.912V324.265H353.516a8,8,0,0,1-6.474-3.3v32.9A7.388,7.388,0,0,0,354.421,361.245Z" transform="translate(-1.133 -13.477)" fill="none"/>
      <path id="Trazado_1467" data-name="Trazado 1467" d="M416.972,355.164v.917a4.808,4.808,0,0,0,4.8,4.8h12.912V350.361H421.775A4.808,4.808,0,0,0,416.972,355.164Z" transform="translate(-30.799 -25.947)" fill="none"/>
      <path id="Trazado_1468" data-name="Trazado 1468" d="M408.445,298.868" transform="translate(-27.182 -4.103)"/>
      <path id="Trazado_1469" data-name="Trazado 1469" d="M413.115,298.868" transform="translate(-29.163 -4.103)"/>
      <path id="Trazado_1470" data-name="Trazado 1470" d="M418.455,298.868" transform="translate(-31.429 -4.103)"/>
      <path id="Trazado_1471" data-name="Trazado 1471" d="M409.007,301.444" transform="translate(-27.42 -5.195)"/>
      <path id="Trazado_1472" data-name="Trazado 1472" d="M389.107,294.766l-5.155-5.24a1.1,1.1,0,0,0-1.557-.006L379.8,292.11l-2.528-2.57a1.118,1.118,0,0,0-1.587-.007l-5.231,5.232H352.383a8,8,0,0,0-7.958,8.93v36.693a8.863,8.863,0,0,0,8.863,8.863h52.083V294.766Zm14.781,1.483v13.057h-.477l-12.845-13.057Zm-20.72-5.406,3.859,3.923c-.024,0,1.459,1.483,1.459,1.483h0l12.845,13.057h-6.97l-10.394-10.566a1.223,1.223,0,0,0-1.737-.007l-10.572,10.573h-6.951Zm9.112,18.463H373.754l9.339-9.339Zm-13.525-16.147-16.147,16.147h-4.594l18.462-18.463Zm-26.233,3.09h16.452l-13.057,13.057h-3.534a6.536,6.536,0,0,1-6.526-6.726A6.619,6.619,0,0,1,352.522,296.249Zm51.366,38.688H390.975a4.8,4.8,0,0,1-4.8-4.8v-.917a4.8,4.8,0,0,1,4.8-4.8h12.912Zm0-12.006H390.976a6.286,6.286,0,0,0-6.286,6.286v.917a6.286,6.286,0,0,0,6.286,6.286h12.913v11.348h-50.6a7.38,7.38,0,0,1-7.379-7.38v-32.9a8,8,0,0,0,6.474,3.3h51.505Z" transform="translate(0 0)" fill="#272635"/>
    </g>
  </g>
</svg>
